<svg xmlns="http://www.w3.org/2000/svg" xmlns:xlink="http://www.w3.org/1999/xlink" width="260" height="160.843" viewBox="0 0 260 160.843">
  <defs>
    <clipPath id="clip-path">
      <rect id="Rectangle_58" data-name="Rectangle 58" width="260" height="160.843" fill="none"/>
    </clipPath>
  </defs>
  <g id="logo" clip-path="url(#clip-path)" style="isolation: isolate">
    <path id="Path_4" data-name="Path 4" d="M26.188,504.435c-2.5-.3-5.766-.756-7.656-2.577a2.473,2.473,0,0,1-.814-2.651c.473-1.172,1.421-1.5,2.919-1.234a40.924,40.924,0,0,0,10.944.492,27.087,27.087,0,0,0,9.59-2.683,23.217,23.217,0,0,0,4.865-3.215,21.143,21.143,0,0,0,5.491-7.446c2.265-5.141,2.868-10.393,3.193-15.9a195.96,195.96,0,0,0,.092-19.927c-.189-5.392-.145-11.126-2.377-16.079-3.476-7.711-10.672-13.656-19.152-14.8a23.706,23.706,0,0,0-12.966,2.01,24.605,24.605,0,0,0-4.661,42,24.785,24.785,0,0,0,27.412,1.454,11.357,11.357,0,0,1,3.31-1.642,2.97,2.97,0,0,1,3.256,1.173,2.8,2.8,0,0,1-.248,2.771,7,7,0,0,1-2.14,1.953c-16.283,10.766-38.56,3.132-45.3-14.971A30.929,30.929,0,0,1,.039,440.857c.86-17.122,17.483-30.729,34.443-28.149a31.582,31.582,0,0,1,19.873,11.376c6.685,8.464,6.17,17.961,6.678,28.17.754,15.137,1.578,32.884-10.44,44.151a30.46,30.46,0,0,1-18.164,8.121,32.633,32.633,0,0,1-6.24-.092" transform="translate(0 -343.79)" fill="#fff"/>
    <path id="Path_5" data-name="Path 5" d="M1231.933,347.177c.436-.212,4.236,1.362,4.693,1.541a40.271,40.271,0,0,1,4.877,2.3,29.813,29.813,0,0,1,7.785,6.1,30.128,30.128,0,0,1,7.7,17.486c.37,3.032.21,5.96.3,5.96h-55.078a53.379,53.379,0,0,0,1.439,5.417c3.752,9.908,13.786,16.333,24.347,16.32a27.481,27.481,0,0,0,15.449-5.05,31.058,31.058,0,0,0,6.16-5.628c.73-.875,1.342-2.193,2.379-2.675,2.742-1.276,4.078,2.168,3.362,4.257a9.5,9.5,0,0,1-1.843,2.943,33.027,33.027,0,0,1-15.4,10.338,37.8,37.8,0,0,1-11.233,1.6c-11.521-.414-23.973-6.61-28.847-20.2a26.58,26.58,0,0,1-1.566-7.34c-.086-1.375-.2-2.757-.151-4.13a29.771,29.771,0,0,1,2.915-11.59,29.47,29.47,0,0,1,10.861-12.813,33.955,33.955,0,0,1,10.49-4.1c.819-.2,1.656-.319,2.475-.516a3.12,3.12,0,0,0,1.932-1.1c2.4-3.2,4.874-6.355,7.346-9.509a8.113,8.113,0,0,1,2.324-2.26,2.446,2.446,0,0,1,3.771,2.775,7.823,7.823,0,0,1-1.293,2.571q-2.513,3.732-5.22,7.327a.079.079,0,0,1,.029-.023m19.217,27.438c-.71-7.354-4.333-12.99-10.263-17.135a23.539,23.539,0,0,0-19.63-3.894,24.878,24.878,0,0,0-14.875,10.213,20.842,20.842,0,0,0-3.989,10.816Z" transform="translate(-997.284 -278.537)" fill="#fff"/>
    <path id="Path_6" data-name="Path 6" d="M532.5,467.672a.78.78,0,0,0-.234.162c-2.462,2.307-4.772,4.731-7.748,6.378a26.61,26.61,0,0,1-8.913,2.928,51.912,51.912,0,0,1-6.953.644,24.747,24.747,0,0,1-7.466-1.183c-8-2.392-14.713-9.752-13.576-18.519a15.6,15.6,0,0,1,5.581-9.951c3.386-2.763,7.957-3.741,12.207-4.162.957-.095,1.916-.162,2.877-.213,4.986-.264,10.052-.145,14.88-1.417,3.471-.915,7.933-3,8.545-6.967.586-3.8-2.1-7.731-5.029-9.882a19.839,19.839,0,0,0-9.9-3.45,21.92,21.92,0,0,0-12.268,2.314,16.7,16.7,0,0,0-5.261,4.4c-1.542,1.947-2.349,4.265-3.758,6.264-1.389,1.97-4.589,2.311-5.119-.532-.649-3.478,2.026-7.856,4.174-10.383a22.8,22.8,0,0,1,8.345-6.036,28.6,28.6,0,0,1,20.779-.726,22.409,22.409,0,0,1,5.463,2.864,22.112,22.112,0,0,1,8.135,11.249c1.737,5.562,1.355,11.3,1.376,17.053q.023,6.314.067,12.627c.019,2.743.271,5.482.2,8.227-.041,1.687-.008,3.719-.991,5.206a2.665,2.665,0,0,1-3.922.861,3.511,3.511,0,0,1-1.159-2.376c-.065-1.084.113-2.259.133-3.392.007-.377.2-1.774-.274-1.991a.245.245,0,0,0-.194,0m.335-23.215c-.359.168-.63.284-.891.419a39.277,39.277,0,0,1-16.526,4.5c-3.1.133-6.218.126-9.314.363a25.421,25.421,0,0,0-5.613,1c-4.477,1.4-7.88,5.436-7.045,10.72a10.632,10.632,0,0,0,3.88,6.807c3.036,2.465,6.683,3.233,10.423,3.532a27.225,27.225,0,0,0,9.736-1.117c8.693-2.5,13.113-9.3,14.381-17.038q.461-2.81.781-5.643c.128-1.132.125-2.278.187-3.544" transform="translate(-406.388 -346.57)" fill="#fff"/>
    <path id="Path_7" data-name="Path 7" d="M850.62,473.171A30.851,30.851,0,0,1,825.37,459.9a30.451,30.451,0,0,1,16.408-46.167,28.666,28.666,0,0,1,10.96-1.145,30.922,30.922,0,0,1,16.2,5.847,29.223,29.223,0,0,1,5.248,5.154,32.022,32.022,0,0,1,4.557,7.5c.535,1.3,1.19,3.24.794,4.659a2.6,2.6,0,0,1-2.82,1.818c-2.271-.291-2.842-2.6-3.586-4.374a24.163,24.163,0,0,0-13.413-13.227,20.2,20.2,0,0,0-6.957-1.591c-9.99-.474-17.739,3.479-23.248,11.772a20.77,20.77,0,0,0-3.314,9.264,24.449,24.449,0,0,0-.322,4.073c.56,9.856,5.566,18.546,16.758,22.6a22.771,22.771,0,0,0,10.478,1.324,25.33,25.33,0,0,0,20.125-15.023c.629-1.491,1.08-3.364,2.645-4.163a2.654,2.654,0,0,1,3.289.876c1.305,1.819-.229,4.87-1,6.655a29.16,29.16,0,0,1-15.547,15.048,31.364,31.364,0,0,1-12.006,2.365" transform="translate(-683.737 -343.867)" fill="#fff"/>
    <path id="Path_8" data-name="Path 8" d="M410.323,867.891l2.1.26a5.124,5.124,0,0,1-1.84,2.856,6.235,6.235,0,0,1-7.6-.6,6.332,6.332,0,0,1-1.541-4.545,6.626,6.626,0,0,1,1.558-4.7,5.275,5.275,0,0,1,4.042-1.671,5.126,5.126,0,0,1,3.929,1.637,6.5,6.5,0,0,1,1.524,4.607q0,.181-.011.542h-8.942a4.605,4.605,0,0,0,1.118,3.026,3.326,3.326,0,0,0,2.506,1.05,3.109,3.109,0,0,0,1.908-.587,3.9,3.9,0,0,0,1.253-1.874m-6.673-3.286h6.7a4.065,4.065,0,0,0-.768-2.269,3.115,3.115,0,0,0-2.518-1.174,3.228,3.228,0,0,0-2.354.937,3.709,3.709,0,0,0-1.056,2.506" transform="translate(-334.656 -716.511)" fill="#fff"/>
    <rect id="Rectangle_57" data-name="Rectangle 57" width="2.032" height="16.552" transform="translate(80.273 138.689)" fill="#fff"/>
    <path id="Path_9" data-name="Path 9" d="M518.069,870.273a7.575,7.575,0,0,1-2.174,1.355,6.285,6.285,0,0,1-2.241.4,4.36,4.36,0,0,1-3.037-.965,3.186,3.186,0,0,1-1.061-2.467,3.342,3.342,0,0,1,1.451-2.777,4.944,4.944,0,0,1,1.462-.666,14.55,14.55,0,0,1,1.806-.3,18.564,18.564,0,0,0,3.625-.7q.011-.418.011-.531a2.243,2.243,0,0,0-.576-1.75,3.4,3.4,0,0,0-2.315-.689,3.588,3.588,0,0,0-2.117.5,3.068,3.068,0,0,0-1.01,1.778l-1.987-.271a4.924,4.924,0,0,1,.892-2.061,3.91,3.91,0,0,1,1.8-1.208,8.006,8.006,0,0,1,2.721-.423,7.2,7.2,0,0,1,2.5.361,3.287,3.287,0,0,1,1.411.909,3.193,3.193,0,0,1,.632,1.383,11.438,11.438,0,0,1,.1,1.874v2.71a28.747,28.747,0,0,0,.13,3.585,4.511,4.511,0,0,0,.514,1.44h-.866a1.662,1.662,0,0,1-1.662-1.462Zm-.169-4.539a14.9,14.9,0,0,1-3.32.768,7.679,7.679,0,0,0-1.772.407,1.768,1.768,0,0,0-.8.66,1.8,1.8,0,0,0,.333,2.32,2.648,2.648,0,0,0,1.8.542,4.19,4.19,0,0,0,2.089-.514,3.164,3.164,0,0,0,1.344-1.406,4.91,4.91,0,0,0,.328-2.032Z" transform="translate(-424.789 -716.511)" fill="#fff"/>
    <path id="Path_10" data-name="Path 10" d="M591,871.753V859.762h1.818v1.682a4.27,4.27,0,0,1,1.5-1.417,4.219,4.219,0,0,1,2.134-.536,3.947,3.947,0,0,1,2.185.553,2.964,2.964,0,0,1,1.2,1.547,4.3,4.3,0,0,1,3.7-2.1,3.65,3.65,0,0,1,2.744.988,4.223,4.223,0,0,1,.96,3.043v8.231h-2.021V864.2a5.565,5.565,0,0,0-.2-1.756,1.7,1.7,0,0,0-.717-.864,2.24,2.24,0,0,0-1.219-.327,2.838,2.838,0,0,0-2.1.841,3.705,3.705,0,0,0-.835,2.693v6.966h-2.032v-7.791a3.429,3.429,0,0,0-.5-2.032,1.881,1.881,0,0,0-1.626-.677,2.954,2.954,0,0,0-1.586.452,2.562,2.562,0,0,0-1.056,1.321,7.435,7.435,0,0,0-.328,2.507v6.221Z" transform="translate(-492.686 -716.511)" fill="#fff"/>
    <path id="Path_11" data-name="Path 11" d="M711.6,867.891l2.1.26a5.124,5.124,0,0,1-1.84,2.856,6.235,6.235,0,0,1-7.6-.6,6.331,6.331,0,0,1-1.541-4.545,6.626,6.626,0,0,1,1.558-4.7,5.274,5.274,0,0,1,4.042-1.671,5.126,5.126,0,0,1,3.929,1.637,6.5,6.5,0,0,1,1.524,4.607q0,.181-.011.542h-8.942a4.6,4.6,0,0,0,1.118,3.026,3.326,3.326,0,0,0,2.506,1.05,3.109,3.109,0,0,0,1.908-.587,3.9,3.9,0,0,0,1.253-1.874m-6.673-3.286h6.7a4.065,4.065,0,0,0-.768-2.269,3.115,3.115,0,0,0-2.518-1.174,3.228,3.228,0,0,0-2.354.937,3.709,3.709,0,0,0-1.056,2.506" transform="translate(-585.816 -716.511)" fill="#fff"/>
    <path id="Path_12" data-name="Path 12" d="M788.908,867.891l2.1.26a5.125,5.125,0,0,1-1.84,2.856,6.235,6.235,0,0,1-7.6-.6,6.331,6.331,0,0,1-1.541-4.545,6.626,6.626,0,0,1,1.558-4.7,5.274,5.274,0,0,1,4.042-1.671,5.126,5.126,0,0,1,3.929,1.637,6.5,6.5,0,0,1,1.524,4.607q0,.181-.011.542h-8.942a4.6,4.6,0,0,0,1.118,3.026,3.326,3.326,0,0,0,2.506,1.05,3.109,3.109,0,0,0,1.908-.587,3.9,3.9,0,0,0,1.253-1.874m-6.673-3.286h6.7a4.064,4.064,0,0,0-.768-2.269,3.116,3.116,0,0,0-2.518-1.174,3.228,3.228,0,0,0-2.354.937,3.708,3.708,0,0,0-1.056,2.506" transform="translate(-650.262 -716.511)" fill="#fff"/>
    <path id="Path_13" data-name="Path 13" d="M946.374,833.7h2.032v2.337h-2.032Zm0,4.561h2.032v11.991h-2.032Z" transform="translate(-788.941 -695.011)" fill="#fff"/>
    <path id="Path_14" data-name="Path 14" d="M982.769,867.473l.076.01a.952.952,0,0,1,.779,1.25,4.814,4.814,0,0,1-1.4,2.122,4.886,4.886,0,0,1-3.314,1.169,5.147,5.147,0,0,1-3.957-1.609,6.527,6.527,0,0,1-1.5-4.612,8.342,8.342,0,0,1,.644-3.4,4.486,4.486,0,0,1,1.959-2.185,5.81,5.81,0,0,1,2.862-.728,4.975,4.975,0,0,1,3.195.988,4.176,4.176,0,0,1,1.252,1.669.95.95,0,0,1-.736,1.3l-.1.015a.959.959,0,0,1-1.029-.591,2.857,2.857,0,0,0-.773-1.1,2.586,2.586,0,0,0-1.733-.61,3.155,3.155,0,0,0-2.5,1.1,5.226,5.226,0,0,0-.96,3.483,5.4,5.4,0,0,0,.926,3.511,3.013,3.013,0,0,0,2.417,1.1,2.846,2.846,0,0,0,2-.734,3.1,3.1,0,0,0,.846-1.451.96.96,0,0,1,1.041-.694" transform="translate(-811.515 -716.511)" fill="#fff"/>
    <path id="Path_15" data-name="Path 15" d="M1051.5,867.891l2.1.26a5.124,5.124,0,0,1-1.84,2.856,6.235,6.235,0,0,1-7.6-.6,6.332,6.332,0,0,1-1.541-4.545,6.626,6.626,0,0,1,1.558-4.7,5.275,5.275,0,0,1,4.042-1.671,5.126,5.126,0,0,1,3.929,1.637,6.5,6.5,0,0,1,1.524,4.607q0,.181-.011.542h-8.942a4.605,4.605,0,0,0,1.118,3.026,3.326,3.326,0,0,0,2.506,1.05,3.109,3.109,0,0,0,1.908-.587,3.9,3.9,0,0,0,1.253-1.874m-6.673-3.286h6.7a4.064,4.064,0,0,0-.768-2.269,3.115,3.115,0,0,0-2.518-1.174,3.228,3.228,0,0,0-2.354.937,3.708,3.708,0,0,0-1.056,2.506" transform="translate(-869.171 -716.511)" fill="#fff"/>
    <path id="Path_16" data-name="Path 16" d="M1168.192,867.473l.077.01a.952.952,0,0,1,.779,1.25,4.816,4.816,0,0,1-1.4,2.122,4.886,4.886,0,0,1-3.314,1.169,5.148,5.148,0,0,1-3.957-1.609,6.527,6.527,0,0,1-1.5-4.612,8.342,8.342,0,0,1,.644-3.4,4.485,4.485,0,0,1,1.959-2.185,5.81,5.81,0,0,1,2.862-.728,4.976,4.976,0,0,1,3.2.988,4.179,4.179,0,0,1,1.252,1.669.95.95,0,0,1-.736,1.3l-.1.015a.959.959,0,0,1-1.029-.591,2.855,2.855,0,0,0-.773-1.1,2.585,2.585,0,0,0-1.733-.61,3.155,3.155,0,0,0-2.5,1.1,5.226,5.226,0,0,0-.96,3.483,5.4,5.4,0,0,0,.926,3.511,3.014,3.014,0,0,0,2.416,1.1,2.847,2.847,0,0,0,2-.734,3.1,3.1,0,0,0,.846-1.451.96.96,0,0,1,1.041-.694" transform="translate(-966.093 -716.511)" fill="#fff"/>
    <path id="Path_17" data-name="Path 17" d="M1231.975,873.111V861.12h.011a1.818,1.818,0,0,1,1.818,1.818,2.89,2.89,0,0,1,1.385-1.411,4.362,4.362,0,0,1,3.175-.056v1.719c0-.165-1.084-.24-1.213-.247a3.912,3.912,0,0,0-1.948.344,2.155,2.155,0,0,0-1.147,1.817,12.389,12.389,0,0,0-.049,1.73v6.277Z" transform="translate(-1027.031 -717.869)" fill="#fff"/>
    <path id="Path_18" data-name="Path 18" d="M861.643,873.111V861.12h.011a1.818,1.818,0,0,1,1.818,1.818,2.89,2.89,0,0,1,1.385-1.411,4.362,4.362,0,0,1,3.175-.056v1.719c0-.165-1.084-.24-1.213-.247a3.911,3.911,0,0,0-1.947.344,2.126,2.126,0,0,0-1.138,1.756,5.635,5.635,0,0,0-.058.861v7.207Z" transform="translate(-718.305 -717.869)" fill="#fff"/>
    <path id="Path_19" data-name="Path 19" d="M1283.211,867.891l2.1.26a5.123,5.123,0,0,1-1.84,2.856,6.235,6.235,0,0,1-7.6-.6,6.331,6.331,0,0,1-1.541-4.545,6.626,6.626,0,0,1,1.558-4.7,5.275,5.275,0,0,1,4.042-1.671,5.127,5.127,0,0,1,3.929,1.637,6.5,6.5,0,0,1,1.524,4.607q0,.181-.011.542h-8.942a4.605,4.605,0,0,0,1.118,3.026,3.326,3.326,0,0,0,2.506,1.05,3.109,3.109,0,0,0,1.908-.587,3.9,3.9,0,0,0,1.253-1.874m-6.673-3.286h6.7a4.065,4.065,0,0,0-.768-2.269,3.115,3.115,0,0,0-2.518-1.174,3.228,3.228,0,0,0-2.354.937,3.708,3.708,0,0,0-1.056,2.506" transform="translate(-1062.336 -716.511)" fill="#fff"/>
    <path id="Path_20" data-name="Path 20" d="M1360.077,870.273a7.571,7.571,0,0,1-2.174,1.355,6.282,6.282,0,0,1-2.241.4,4.36,4.36,0,0,1-3.037-.965,3.186,3.186,0,0,1-1.061-2.467,3.341,3.341,0,0,1,1.451-2.777,4.945,4.945,0,0,1,1.462-.666,14.546,14.546,0,0,1,1.806-.3,18.558,18.558,0,0,0,3.624-.7q.011-.418.011-.531a2.243,2.243,0,0,0-.576-1.75,3.4,3.4,0,0,0-2.314-.689,3.588,3.588,0,0,0-2.117.5,2.464,2.464,0,0,0-.772,1.057,1,1,0,1,1-1.827-.8,3.978,3.978,0,0,1,.492-.815,3.91,3.91,0,0,1,1.8-1.208,8.005,8.005,0,0,1,2.721-.423,7.2,7.2,0,0,1,2.5.361,3.287,3.287,0,0,1,1.411.909,3.194,3.194,0,0,1,.632,1.383,11.438,11.438,0,0,1,.1,1.874v2.71a28.731,28.731,0,0,0,.13,3.585,4.511,4.511,0,0,0,.514,1.44h-.882A1.657,1.657,0,0,1,1360.077,870.273Zm-.169-4.539a14.89,14.89,0,0,1-3.32.768,7.68,7.68,0,0,0-1.773.407,1.77,1.77,0,0,0-.8.66,1.8,1.8,0,0,0,.333,2.32,2.648,2.648,0,0,0,1.8.542,4.19,4.19,0,0,0,2.089-.514,3.163,3.163,0,0,0,1.343-1.406,4.908,4.908,0,0,0,.328-2.032Z" transform="translate(-1126.726 -716.511)" fill="#fff"/>
    <path id="Path_21" data-name="Path 21" d="M1433.008,871.753V859.762h.135a1.682,1.682,0,0,1,1.682,1.682,4.267,4.267,0,0,1,1.5-1.417,4.22,4.22,0,0,1,2.134-.536,3.945,3.945,0,0,1,2.185.553,2.964,2.964,0,0,1,1.2,1.547,4.3,4.3,0,0,1,3.7-2.1,3.651,3.651,0,0,1,2.744.988,4.224,4.224,0,0,1,.959,3.043v8.231h-2.021V864.2a5.566,5.566,0,0,0-.2-1.756,1.7,1.7,0,0,0-.717-.864,2.24,2.24,0,0,0-1.219-.327,2.838,2.838,0,0,0-2.1.841,3.705,3.705,0,0,0-.835,2.693v6.966h-2.032v-7.791a3.431,3.431,0,0,0-.5-2.032,1.882,1.882,0,0,0-1.626-.677,2.953,2.953,0,0,0-1.586.452,2.561,2.561,0,0,0-1.055,1.321,7.432,7.432,0,0,0-.328,2.507v6.221Z" transform="translate(-1194.621 -716.511)" fill="#fff"/>
    <path id="Path_22" data-name="Path 22" d="M410.177,332.94h0a2.835,2.835,0,0,1-2.835-2.835V247.073a2.835,2.835,0,1,1,5.67,0V330.1a2.835,2.835,0,0,1-2.835,2.835" transform="translate(-339.579 -203.608)" fill="#fff"/>
    <path id="Path_23" data-name="Path 23" d="M781.825,265.97a11.995,11.995,0,1,1-11.995-11.995,11.995,11.995,0,0,1,11.995,11.995" transform="translate(-631.766 -211.725)" fill="#fff"/>
    <path id="Path_24" data-name="Path 24" d="M902.772,176.156a8.394,8.394,0,1,1-8.394-8.394,8.394,8.394,0,0,1,8.394,8.394" transform="translate(-738.597 -139.854)" fill="#fff"/>
    <path id="Path_25" data-name="Path 25" d="M880.562,47.92a6.148,6.148,0,1,1-6.148-6.148,6.148,6.148,0,0,1,6.148,6.148" transform="translate(-723.826 -34.823)" fill="#fff"/>
    <path id="Path_26" data-name="Path 26" d="M1038.067,4.747A4.748,4.748,0,1,1,1033.319,0a4.748,4.748,0,0,1,4.748,4.748" transform="translate(-857.464 0.001)" fill="#fff"/>
  </g>
</svg>
